ply
format ascii 1.0
comment generated by finfoil
element vertex 200
property float x
property float y
property float z
element face 180
property list uchar uint vertex_indices
end_header
0 0 0.001 
0.000334824 0 0.0015048 
0.00267859 0 0.00266804 
0.00904025 0 0.00396296 
0.0214287 0 0.00486283 
0.0369701 0 0.00486283 
0.0557482 0 0.00396296 
0.0770374 0 0.00266804 
0.0944762 0 0.0015048 
0.101703 0 0.001 
0 0 -0.001 
0.000334824 0 -0.0015048 
0.00267859 0 -0.00266804 
0.00904025 0 -0.00396296 
0.0214287 0 -0.00486283 
0.0369701 0 -0.00486283 
0.0557482 0 -0.00396296 
0.0770374 0 -0.00266804 
0.0944762 0 -0.0015048 
0.101703 0 -0.001 
0.00331208 0.00618095 0.001 
0.00362656 0.00618095 0.00150261 
0.0058279 0.00618095 0.00266081 
0.011803 0.00618095 0.00395012 
0.0234386 0.00618095 0.00484608 
0.0380356 0.00618095 0.00484608 
0.0556726 0.00618095 0.00395012 
0.0756681 0.00618095 0.00266081 
0.0920471 0.00618095 0.00150261 
0.0988346 0.00618095 0.001 
0.00331208 0.00618095 -0.001 
0.00362656 0.00618095 -0.00150261 
0.0058279 0.00618095 -0.00266081 
0.011803 0.00618095 -0.00395012 
0.0234386 0.00618095 -0.00484608 
0.0380356 0.00618095 -0.00484608 
0.0556726 0.00618095 -0.00395012 
0.0756681 0.00618095 -0.00266081 
0.0920471 0.00618095 -0.00150261 
0.0988346 0.00618095 -0.001 
0.0101648 0.0176785 0.001 
0.0104476 0.0176785 0.00149268 
0.0124279 0.0176785 0.00262798 
0.0178028 0.0176785 0.00389181 
0.0282697 0.0176785 0.00477007 
0.0414006 0.0176785 0.00477007 
0.057266 0.0176785 0.00389181 
0.0752531 0.0176785 0.00262798 
0.089987 0.0176785 0.00149268 
0.0960927 0.0176785 0.001 
0.0101648 0.0176785 -0.001 
0.0104476 0.0176785 -0.00149268 
0.0124279 0.0176785 -0.00262798 
0.0178028 0.0176785 -0.00389181 
0.0282697 0.0176785 -0.00477007 
0.0414006 0.0176785 -0.00477007 
0.057266 0.0176785 -0.00389181 
0.0752531 0.0176785 -0.00262798 
0.089987 0.0176785 -0.00149268 
0.0960927 0.0176785 -0.001 
0.0205592 0.0329944 0.001 
0.0208129 0.0329944 0.00146893 
0.0225888 0.0329944 0.00254949 
0.027409 0.0329944 0.00375239 
0.0367958 0.0329944 0.0045883 
0.0485716 0.0329944 0.0045883 
0.0627997 0.0329944 0.00375239 
0.0789306 0.0329944 0.00254949 
0.092144 0.0329944 0.00146893 
0.0976196 0.0329944 0.001 
0.0205592 0.0329944 -0.001 
0.0208129 0.0329944 -0.00146893 
0.0225888 0.0329944 -0.00254949 
0.027409 0.0329944 -0.00375239 
0.0367958 0.0329944 -0.0045883 
0.0485716 0.0329944 -0.0045883 
0.0627997 0.0329944 -0.00375239 
0.0789306 0.0329944 -0.00254949 
0.092144 0.0329944 -0.00146893 
0.0976196 0.0329944 -0.001 
0.0346328 0.0508193 0.001 
0.0348668 0.0508193 0.00142333 
0.0365047 0.0508193 0.00239882 
0.0409505 0.0508193 0.00348475 
0.0496081 0.0508193 0.00423937 
0.060469 0.0508193 0.00423937 
0.0735918 0.0508193 0.00348475 
0.0884696 0.0508193 0.00239882 
0.100656 0.0508193 0.00142333 
0.105707 0.0508193 0.001 
0.0346328 0.0508193 -0.001 
0.0348668 0.0508193 -0.00142333 
0.0365047 0.0508193 -0.00239882 
0.0409505 0.0508193 -0.00348475 
0.0496081 0.0508193 -0.00423937 
0.060469 0.0508193 -0.00423937 
0.0735918 0.0508193 -0.00348475 
0.0884696 0.0508193 -0.00239882 
0.100656 0.0508193 -0.00142333 
0.105707 0.0508193 -0.001 
0.0474442 0.0644717 0.001 
0.0476812 0.0644717 0.00137005 
0.0493405 0.0644717 0.00222279 
0.0538443 0.0644717 0.00317206 
0.0626147 0.0644717 0.00383172 
0.0736173 0.0644717 0.00383172 
0.0869113 0.0644717 0.00317206 
0.101983 0.0644717 0.00222279 
0.114329 0.0644717 0.00137005 
0.119445 0.0644717 0.001 
0.0474442 0.0644717 -0.001 
0.0476812 0.0644717 -0.00137005 
0.0493405 0.0644717 -0.00222279 
0.0538443 0.0644717 -0.00317206 
0.0626147 0.0644717 -0.00383172 
0.0736173 0.0644717 -0.00383172 
0.0869113 0.0644717 -0.00317206 
0.101983 0.0644717 -0.00222279 
0.114329 0.0644717 -0.00137005 
0.119445 0.0644717 -0.001 
0.0596927 0.0754675 0.001 
0.0599525 0.0754675 0.00130885 
0.0617706 0.0754675 0.00202054 
0.0667056 0.0754675 0.0028128 
0.0763159 0.0754675 0.00336336 
0.0883719 0.0754675 0.00336336 
0.102939 0.0754675 0.0028128 
0.119454 0.0754675 0.00202054 
0.132982 0.0754675 0.00130885 
0.138588 0.0754675 0.001 
0.0596927 0.0754675 -0.001 
0.0599525 0.0754675 -0.00130885 
0.0617706 0.0754675 -0.00202054 
0.0667056 0.0754675 -0.0028128 
0.0763159 0.0754675 -0.00336336 
0.0883719 0.0754675 -0.00336336 
0.102939 0.0754675 -0.0028128 
0.119454 0.0754675 -0.00202054 
0.132982 0.0754675 -0.00130885 
0.138588 0.0754675 -0.001 
0.0720014 0.0844869 0.001 
0.0722541 0.0844869 0.00123756 
0.0740233 0.0844869 0.00178497 
0.0788255 0.0844869 0.00239435 
0.088177 0.0844869 0.00281782 
0.0999086 0.0844869 0.00281782 
0.114083 0.0844869 0.00239435 
0.130154 0.0844869 0.00178497 
0.143318 0.0844869 0.00123756 
0.148773 0.0844869 0.001 
0.0720014 0.0844869 -0.001 
0.0722541 0.0844869 -0.00123756 
0.0740233 0.0844869 -0.00178497 
0.0788255 0.0844869 -0.00239435 
0.088177 0.0844869 -0.00281782 
0.0999086 0.0844869 -0.00281782 
0.114083 0.0844869 -0.00239435 
0.130154 0.0844869 -0.00178497 
0.143318 0.0844869 -0.00123756 
0.148773 0.0844869 -0.001 
0.0880035 0.0932053 0.001 
0.0881867 0.0932053 0.00112971 
0.0894695 0.0932053 0.0014286 
0.0929512 0.0932053 0.00176133 
0.0997313 0.0932053 0.00199254 
0.108237 0.0932053 0.00199254 
0.118514 0.0932053 0.00176133 
0.130165 0.0932053 0.0014286 
0.139709 0.0932053 0.00112971 
0.143665 0.0932053 0.001 
0.0880035 0.0932053 -0.001 
0.0881867 0.0932053 -0.00112971 
0.0894695 0.0932053 -0.0014286 
0.0929512 0.0932053 -0.00176133 
0.0997313 0.0932053 -0.00199254 
0.108237 0.0932053 -0.00199254 
0.118514 0.0932053 -0.00176133 
0.130165 0.0932053 -0.0014286 
0.139709 0.0932053 -0.00112971 
0.143665 0.0932053 -0.001 
0.103742 0.0983677 0.001 
0.103835 0.0983677 0.0010066 
0.104489 0.0983677 0.0010218 
0.106264 0.0983677 0.00103873 
0.10972 0.0983677 0.00105049 
0.114055 0.0983677 0.00105049 
0.119294 0.0983677 0.00103873 
0.125233 0.0983677 0.0010218 
0.130098 0.0983677 0.0010066 
0.132114 0.0983677 0.001 
0.103742 0.0983677 -0.001 
0.103835 0.0983677 -0.0010066 
0.104489 0.0983677 -0.0010218 
0.106264 0.0983677 -0.00103873 
0.10972 0.0983677 -0.00105049 
0.114055 0.0983677 -0.00105049 
0.119294 0.0983677 -0.00103873 
0.125233 0.0983677 -0.0010218 
0.130098 0.0983677 -0.0010066 
0.132114 0.0983677 -0.001 
4 0 20 30 10 
4 20 0 1 21 
4 21 1 2 22 
4 22 2 3 23 
4 23 3 4 24 
4 24 4 5 25 
4 25 5 6 26 
4 26 6 7 27 
4 27 7 8 28 
4 28 8 9 29 
4 11 10 30 31 
4 12 11 31 32 
4 13 12 32 33 
4 14 13 33 34 
4 15 14 34 35 
4 16 15 35 36 
4 17 16 36 37 
4 18 17 37 38 
4 19 18 38 39 
4 9 19 39 29 
4 20 40 50 30 
4 40 20 21 41 
4 41 21 22 42 
4 42 22 23 43 
4 43 23 24 44 
4 44 24 25 45 
4 45 25 26 46 
4 46 26 27 47 
4 47 27 28 48 
4 48 28 29 49 
4 31 30 50 51 
4 32 31 51 52 
4 33 32 52 53 
4 34 33 53 54 
4 35 34 54 55 
4 36 35 55 56 
4 37 36 56 57 
4 38 37 57 58 
4 39 38 58 59 
4 29 39 59 49 
4 40 60 70 50 
4 60 40 41 61 
4 61 41 42 62 
4 62 42 43 63 
4 63 43 44 64 
4 64 44 45 65 
4 65 45 46 66 
4 66 46 47 67 
4 67 47 48 68 
4 68 48 49 69 
4 51 50 70 71 
4 52 51 71 72 
4 53 52 72 73 
4 54 53 73 74 
4 55 54 74 75 
4 56 55 75 76 
4 57 56 76 77 
4 58 57 77 78 
4 59 58 78 79 
4 49 59 79 69 
4 60 80 90 70 
4 80 60 61 81 
4 81 61 62 82 
4 82 62 63 83 
4 83 63 64 84 
4 84 64 65 85 
4 85 65 66 86 
4 86 66 67 87 
4 87 67 68 88 
4 88 68 69 89 
4 71 70 90 91 
4 72 71 91 92 
4 73 72 92 93 
4 74 73 93 94 
4 75 74 94 95 
4 76 75 95 96 
4 77 76 96 97 
4 78 77 97 98 
4 79 78 98 99 
4 69 79 99 89 
4 80 100 110 90 
4 100 80 81 101 
4 101 81 82 102 
4 102 82 83 103 
4 103 83 84 104 
4 104 84 85 105 
4 105 85 86 106 
4 106 86 87 107 
4 107 87 88 108 
4 108 88 89 109 
4 91 90 110 111 
4 92 91 111 112 
4 93 92 112 113 
4 94 93 113 114 
4 95 94 114 115 
4 96 95 115 116 
4 97 96 116 117 
4 98 97 117 118 
4 99 98 118 119 
4 89 99 119 109 
4 100 120 130 110 
4 120 100 101 121 
4 121 101 102 122 
4 122 102 103 123 
4 123 103 104 124 
4 124 104 105 125 
4 125 105 106 126 
4 126 106 107 127 
4 127 107 108 128 
4 128 108 109 129 
4 111 110 130 131 
4 112 111 131 132 
4 113 112 132 133 
4 114 113 133 134 
4 115 114 134 135 
4 116 115 135 136 
4 117 116 136 137 
4 118 117 137 138 
4 119 118 138 139 
4 109 119 139 129 
4 120 140 150 130 
4 140 120 121 141 
4 141 121 122 142 
4 142 122 123 143 
4 143 123 124 144 
4 144 124 125 145 
4 145 125 126 146 
4 146 126 127 147 
4 147 127 128 148 
4 148 128 129 149 
4 131 130 150 151 
4 132 131 151 152 
4 133 132 152 153 
4 134 133 153 154 
4 135 134 154 155 
4 136 135 155 156 
4 137 136 156 157 
4 138 137 157 158 
4 139 138 158 159 
4 129 139 159 149 
4 140 160 170 150 
4 160 140 141 161 
4 161 141 142 162 
4 162 142 143 163 
4 163 143 144 164 
4 164 144 145 165 
4 165 145 146 166 
4 166 146 147 167 
4 167 147 148 168 
4 168 148 149 169 
4 151 150 170 171 
4 152 151 171 172 
4 153 152 172 173 
4 154 153 173 174 
4 155 154 174 175 
4 156 155 175 176 
4 157 156 176 177 
4 158 157 177 178 
4 159 158 178 179 
4 149 159 179 169 
4 160 180 190 170 
4 180 160 161 181 
4 181 161 162 182 
4 182 162 163 183 
4 183 163 164 184 
4 184 164 165 185 
4 185 165 166 186 
4 186 166 167 187 
4 187 167 168 188 
4 188 168 169 189 
4 171 170 190 191 
4 172 171 191 192 
4 173 172 192 193 
4 174 173 193 194 
4 175 174 194 195 
4 176 175 195 196 
4 177 176 196 197 
4 178 177 197 198 
4 179 178 198 199 
4 169 179 199 189 
